<?xml version="1.0" encoding="utf-8"?>
<!-- Generator: Adobe Illustrator 21.1.0, SVG Export Plug-In . SVG Version: 6.00 Build 0)  -->
<!DOCTYPE svg PUBLIC "-//W3C//DTD SVG 1.1//EN" "http://www.w3.org/Graphics/SVG/1.1/DTD/svg11.dtd">
<svg version="1.1" id="Layer_1" xmlns="http://www.w3.org/2000/svg" xmlns:xlink="http://www.w3.org/1999/xlink" x="0px" y="0px"
	 viewBox="0 0 88 43.1" style="enable-background:new 0 0 88 43.1;" xml:space="preserve">
<style type="text/css">
	.st0{fill:#FFFFFF;}
</style>
<g>
	<path class="st0" d="M1.6,24.7V0.6h6.3l11.5,14.7h0.1V0.6h6.3v24.1h-6.3L7.9,10H7.9v14.8H1.6z"/>
	<path class="st0" d="M40.5,0.6v24.1h-6.3V0.6H40.5z"/>
	<path class="st0" d="M58.7,5.9v18.8h-6.3V5.9h-5.2V0.6h16.6v5.3H58.7z"/>
	<path class="st0" d="M86.3,2l-2.5,4.9c-1.3-1.1-2.7-1.6-4.2-1.6c-0.7,0-1.3,0.2-1.8,0.5S77,6.6,77,7.3c0,0.4,0.2,0.8,0.5,1.2
		s0.7,0.6,1,0.7c0.3,0.1,0.7,0.3,1.3,0.4l1.6,0.5c1.9,0.6,3.3,1.3,4.4,2.3c1,1,1.6,2.4,1.6,4.2c0,2.9-0.8,5.1-2.5,6.5
		c-1.8,1.5-4.1,2.3-6.8,2.3c-3,0-5.8-0.9-8.5-2.7l2.7-5c1.9,1.7,3.8,2.5,5.6,2.5c0.8,0,1.5-0.2,2.1-0.6c0.6-0.4,0.9-1,0.9-1.8
		c0-1.1-1-1.9-3-2.5c-0.1,0-0.3-0.1-0.8-0.2c-1.2-0.3-2.1-0.6-2.7-0.9c-0.7-0.3-1.3-0.7-2-1.2s-1.1-1.1-1.4-1.9s-0.4-1.7-0.4-2.8
		c0-2.4,0.8-4.4,2.3-5.9c1.6-1.5,3.5-2.2,6-2.2c1.2,0,2.5,0.2,3.9,0.5C84,0.9,85.2,1.4,86.3,2z"/>
</g>
<g>
	<path class="st0" d="M0,40.7v-7.2l6,6.3v-6.2h0.5v7.3l-6-6.3v6.1H0z"/>
	<path class="st0" d="M8.4,38.5c0,1.1,0.8,1.8,1.7,1.8c0.7,0,1.2-0.4,1.5-1l0.4,0.2c-0.3,0.5-0.8,1.2-1.9,1.2c-1.4,0-2.1-1-2.1-2.3
		c0-1.5,1-2.3,2.1-2.3c1.2,0,2.1,0.9,2.1,2.3H8.4z M11.7,38.1c-0.1-0.9-0.7-1.5-1.6-1.5c-0.9,0-1.5,0.7-1.6,1.5H11.7z"/>
	<path class="st0" d="M13.2,36.3l1.5,3.6l1.5-3.9l1.5,3.9l1.6-3.6h0.5l-2,4.6l-1.5-3.9l-1.5,3.9l-2-4.6H13.2z"/>
	<path class="st0" d="M22.4,37.1c-0.1-0.3-0.4-0.5-0.8-0.5c-0.5,0-0.7,0.4-0.7,0.7c0,0.4,0.3,0.6,0.8,0.7c0.4,0.2,0.8,0.3,1.1,0.6
		c0.2,0.2,0.2,0.5,0.2,0.7c0,1-0.7,1.4-1.4,1.4c-0.7,0-1.3-0.4-1.5-1.2l0.4-0.1c0.1,0.6,0.6,0.9,1.1,0.9c0.6,0,1-0.4,1-1
		c0-0.5-0.3-0.7-1-0.9c-0.4-0.2-0.8-0.3-1-0.6c-0.1-0.1-0.2-0.3-0.2-0.6c0-0.7,0.5-1.1,1.2-1.1c0.5,0,0.9,0.2,1.1,0.7L22.4,37.1z"/>
	<path class="st0" d="M32.3,38.2c-0.4,0.5-0.7,0.8-0.9,1l1.1,1.4h-0.6L31,39.6c-0.5,0.4-0.8,0.7-1.3,0.9c-0.5,0.2-0.9,0.4-1.3,0.4
		c-0.5,0-1-0.2-1.3-0.5c-0.3-0.3-0.6-0.7-0.6-1.3c0-0.6,0.2-1,0.5-1.3c0.2-0.3,0.5-0.5,0.9-0.8l0.8-0.5c-0.5-0.8-0.7-1.1-0.7-1.6
		c0-0.3,0.1-0.7,0.4-1c0.3-0.3,0.6-0.4,1-0.4c0.4,0,0.7,0.1,0.9,0.4c0.3,0.3,0.4,0.6,0.4,1c0,0.2,0,0.7-0.5,1.1
		c-0.2,0.2-0.6,0.5-0.8,0.6l1.7,2.4c0.2-0.2,0.4-0.5,0.8-1L32.3,38.2z M29,36.7l-0.7,0.4c-0.4,0.2-0.7,0.5-0.9,0.8
		c-0.2,0.3-0.3,0.6-0.3,1c0,0.3,0.1,0.7,0.4,1c0.2,0.2,0.5,0.4,1,0.4c0.4,0,0.8-0.2,1.3-0.4c0.4-0.2,0.8-0.5,1.1-0.8L29,36.7z
		 M29.9,35.5c0.2-0.2,0.3-0.4,0.3-0.8c0-0.3-0.1-0.5-0.2-0.6c-0.2-0.2-0.4-0.2-0.6-0.2c-0.1,0-0.4,0-0.6,0.2
		c-0.2,0.2-0.3,0.5-0.3,0.7c0,0.5,0.4,0.9,0.6,1.3C29.3,36,29.7,35.7,29.9,35.5z"/>
	<path class="st0" d="M36.3,32.9v4.2c0.4-0.6,1-0.9,1.7-0.9c1.3,0,2.1,1,2.1,2.2c0,1.3-0.8,2.3-2.1,2.3c-1.1,0-1.6-0.7-1.7-0.9v0.8
		h-0.4v-7.8H36.3z M39.7,38.5c0-1.2-0.8-1.8-1.7-1.8c-0.9,0-1.7,0.6-1.7,1.8c0,1.1,0.6,1.9,1.7,1.9C39.1,40.4,39.7,39.5,39.7,38.5z"
		/>
	<path class="st0" d="M41.2,34.9c0-0.2,0.2-0.4,0.4-0.4c0.2,0,0.4,0.2,0.4,0.4c0,0.2-0.2,0.4-0.4,0.4C41.4,35.3,41.2,35.1,41.2,34.9
		z M41.8,36.3v4.4h-0.4v-4.4H41.8z"/>
	<path class="st0" d="M43.8,36.7v4h-0.4v-4h-0.5v-0.4h0.5v-1.6h0.4v1.6h0.8v0.4H43.8z"/>
	<path class="st0" d="M47.3,37.1c-0.1-0.3-0.4-0.5-0.8-0.5c-0.5,0-0.7,0.4-0.7,0.7c0,0.4,0.3,0.6,0.8,0.7c0.4,0.2,0.8,0.3,1.1,0.6
		c0.2,0.2,0.2,0.5,0.2,0.7c0,1-0.7,1.4-1.4,1.4c-0.7,0-1.3-0.4-1.5-1.2l0.4-0.1c0.1,0.6,0.6,0.9,1.1,0.9c0.6,0,1-0.4,1-1
		c0-0.5-0.3-0.7-1-0.9c-0.4-0.2-0.8-0.3-1-0.6c-0.1-0.1-0.2-0.3-0.2-0.6c0-0.7,0.5-1.1,1.2-1.1c0.5,0,0.9,0.2,1.1,0.7L47.3,37.1z"/>
	<path class="st0" d="M51.7,38.5c0,1.1,0.8,1.8,1.7,1.8c0.7,0,1.2-0.4,1.5-1l0.4,0.2c-0.3,0.5-0.8,1.2-1.9,1.2c-1.4,0-2.1-1-2.1-2.3
		c0-1.5,1-2.3,2.1-2.3c1.2,0,2.1,0.9,2.1,2.3H51.7z M54.9,38.1c-0.1-0.9-0.7-1.5-1.6-1.5c-0.9,0-1.5,0.7-1.6,1.5H54.9z"/>
	<path class="st0" d="M56.2,36.3l1.5,3.6l1.5-3.6h0.5l-2,4.6l-2-4.6H56.2z"/>
	<path class="st0" d="M60.8,38.5c0,1.1,0.8,1.8,1.7,1.8c0.7,0,1.2-0.4,1.5-1l0.4,0.2c-0.3,0.5-0.8,1.2-1.9,1.2c-1.4,0-2.2-1-2.2-2.3
		c0-1.5,1-2.3,2.1-2.3c1.2,0,2.1,0.9,2.1,2.3H60.8z M64.1,38.1c-0.1-0.9-0.7-1.5-1.6-1.5c-0.9,0-1.5,0.7-1.6,1.5H64.1z"/>
	<path class="st0" d="M65.8,36.3h0.4v0.6c0.2-0.4,0.5-0.7,1-0.7c0.1,0,0.3,0,0.5,0.1l-0.2,0.4c0,0-0.1-0.1-0.3-0.1
		c-0.9,0-0.9,1.2-0.9,1.7v2.3h-0.4V36.3z"/>
	<path class="st0" d="M70.1,40.8L68,36.3h0.5l1.8,3.9l1.6-3.9h0.5l-2.9,6.8H69L70.1,40.8z"/>
	<path class="st0" d="M76.8,32.9h0.4v7.8h-0.4v-0.8c-0.4,0.7-1.1,0.9-1.7,0.9C74,40.8,73,40,73,38.5c0-1.6,1.1-2.3,2.1-2.3
		c0.8,0,1.3,0.4,1.7,0.9V32.9z M73.4,38.5c0,1.3,0.8,1.9,1.7,1.9c0.9,0,1.7-0.7,1.7-1.9c0-1-0.6-1.8-1.7-1.8
		C74.2,36.6,73.4,37.2,73.4,38.5z"/>
	<path class="st0" d="M82.3,36.3h0.4v4.4h-0.4v-0.8c-0.4,0.7-1.1,0.9-1.7,0.9c-1.1,0-2.1-0.9-2.1-2.3c0-1.3,0.9-2.3,2.1-2.3
		c0.7,0,1.3,0.3,1.7,0.9V36.3z M78.9,38.5c0,1,0.6,1.9,1.7,1.9c1.1,0,1.7-0.9,1.7-1.9c0-1.3-1-1.8-1.7-1.8
		C79.8,36.6,78.9,37.3,78.9,38.5z"/>
	<path class="st0" d="M85.7,40.8l-2.1-4.4h0.5l1.8,3.9l1.6-3.9H88l-2.9,6.8h-0.5L85.7,40.8z"/>
</g>
</svg>
